<svg width="23" height="31" viewBox="0 0 23 31" fill="none" xmlns="http://www.w3.org/2000/svg">
<path fill-rule="evenodd" clip-rule="evenodd" d="M8.48728 4.14467C8.48728 2.45207 9.88148 1.05786 11.5741 1.05786C13.2667 1.05786 14.6609 2.45207 14.6609 4.14467C14.6609 4.68479 14.5053 5.18607 14.257 5.62979C17.4823 6.74474 19.8056 9.80316 19.8056 13.4051V18.1237L22.8924 21.2105V25.7523H15.6898C15.6898 28.0132 13.835 29.8681 11.5741 29.8681C9.31322 29.8681 7.45834 28.0132 7.45834 25.7523H0.255798V21.2105L3.3426 18.1237V13.4051C3.3426 9.80316 5.66592 6.74474 8.89122 5.62979C8.6429 5.18607 8.48728 4.68479 8.48728 4.14467ZM12.603 4.14467C12.603 3.56421 12.1545 3.11574 11.5741 3.11574C10.9936 3.11574 10.5451 3.56421 10.5451 4.14467C10.5451 4.72512 10.9936 5.17363 11.5741 5.17363C12.1545 5.17363 12.603 4.72512 12.603 4.14467ZM11.5741 7.23147C15.0121 7.23147 17.7477 9.96711 17.7477 13.4051V18.9758L20.8345 22.0626V23.6945H2.31367V22.0626L5.40047 18.9758V13.4051C5.40047 9.96711 8.1361 7.23147 11.5741 7.23147ZM11.5741 27.8102C12.7228 27.8102 13.632 26.901 13.632 25.7523H9.51622C9.51622 26.901 10.4254 27.8102 11.5741 27.8102Z" fill="white"/>
</svg>
