<svg width="24" height="22" viewBox="0 0 24 22" fill="none" xmlns="http://www.w3.org/2000/svg">
<path fill-rule="evenodd" clip-rule="evenodd" d="M1.489 1.00002C1.21893 1.00002 1 1.22382 1 1.49989C1 1.77596 1.21893 1.99976 1.489 1.99976H4.51472L7.08962 14.4341C7.15209 14.7413 7.35283 14.9997 7.60156 14.9964H19.8267C20.085 15.0002 20.3226 14.7607 20.3226 14.4965C20.3226 14.2324 20.085 13.9929 19.8267 13.9967H7.99887L7.58628 11.9972H20.8047C21.0236 11.9947 21.2305 11.8251 21.2784 11.6067L22.9899 4.10859C23.0535 3.81849 22.807 3.5015 22.5162 3.49937H5.82892L5.39341 1.39054C5.34495 1.1696 5.13353 0.998084 4.91203 1.00002H1.489ZM6.03523 4.49912H10.3675L10.8183 7.2484H6.60827L6.03523 4.49912ZM16.5641 4.49912H11.3531L11.8039 7.2484H16.1133L16.5641 4.49912ZM17.5497 4.49912H21.9049L21.2784 7.2484H17.0989L17.5497 4.49912ZM10.9787 8.24814H6.81455L7.37999 10.9974H11.4295L10.9787 8.24814ZM11.972 8.24814H15.9452L15.502 10.9974H12.4152L11.972 8.24814ZM21.0492 8.24814H16.9385L16.4877 10.9974H20.415L21.0492 8.24814ZM10.2911 16.496C9.08158 16.496 8.09056 17.509 8.09056 18.7454C8.09056 19.9818 9.08158 20.9948 10.2911 20.9948C11.5006 20.9948 12.4916 19.9818 12.4916 18.7454C12.4916 17.509 11.5006 16.496 10.2911 16.496ZM14.9366 18.7454C14.9366 17.509 15.9276 16.496 17.1371 16.496C18.3467 16.496 19.3377 17.509 19.3377 18.7454C19.3377 19.9818 18.3467 20.9948 17.1371 20.9948C15.9276 20.9948 14.9366 19.9818 14.9366 18.7454ZM10.2911 17.4957C10.972 17.4957 11.5136 18.0493 11.5136 18.7454C11.5136 19.4415 10.972 19.9951 10.2911 19.9951C9.61014 19.9951 9.06857 19.4415 9.06857 18.7454C9.06857 18.0493 9.61014 17.4957 10.2911 17.4957ZM18.3597 18.7454C18.3597 18.0493 17.8181 17.4957 17.1371 17.4957C16.4562 17.4957 15.9146 18.0493 15.9146 18.7454C15.9146 19.4415 16.4562 19.9951 17.1371 19.9951C17.8181 19.9951 18.3597 19.4415 18.3597 18.7454Z" fill="#FE5900"/>
<path d="M4.51472 1.99976L4.71056 1.9592L4.67755 1.79976H4.51472V1.99976ZM7.08962 14.4341L7.28561 14.3942L7.28546 14.3935L7.08962 14.4341ZM7.60156 14.9964V14.7964L7.59894 14.7964L7.60156 14.9964ZM19.8267 14.9964L19.8296 14.7964H19.8267V14.9964ZM19.8267 13.9967V14.1967L19.8295 14.1966L19.8267 13.9967ZM7.99887 13.9967L7.803 14.0371L7.83593 14.1967H7.99887V13.9967ZM7.58628 11.9972V11.7972H7.34079L7.3904 12.0376L7.58628 11.9972ZM20.8047 11.9972V12.1972L20.807 12.1972L20.8047 11.9972ZM21.2784 11.6067L21.0834 11.5622L21.083 11.5638L21.2784 11.6067ZM22.9899 4.10859L23.1849 4.1531L23.1853 4.15142L22.9899 4.10859ZM22.5162 3.49937L22.5176 3.29937H22.5162V3.49937ZM5.82892 3.49937L5.63305 3.53982L5.666 3.69937H5.82892V3.49937ZM5.39341 1.39054L5.58929 1.35009L5.58877 1.34769L5.39341 1.39054ZM4.91203 1.00002V1.20002L4.91378 1.20001L4.91203 1.00002ZM10.3675 4.49912L10.5649 4.46675L10.5374 4.29912H10.3675V4.49912ZM6.03523 4.49912V4.29912H5.78924L5.83944 4.53993L6.03523 4.49912ZM10.8183 7.2484V7.4484H11.0537L11.0156 7.21604L10.8183 7.2484ZM6.60827 7.2484L6.41248 7.28921L6.44566 7.4484H6.60827V7.2484ZM11.3531 4.49912V4.29912H11.1177L11.1558 4.53148L11.3531 4.49912ZM16.5641 4.49912L16.7614 4.53148L16.7995 4.29912H16.5641V4.49912ZM11.8039 7.2484L11.6066 7.28076L11.6341 7.4484H11.8039V7.2484ZM16.1133 7.2484V7.4484H16.2832L16.3107 7.28076L16.1133 7.2484ZM21.9049 4.49912L22.0999 4.54355L22.1556 4.29912H21.9049V4.49912ZM17.5497 4.49912V4.29912H17.3799L17.3524 4.46675L17.5497 4.49912ZM21.2784 7.2484V7.4484H21.4379L21.4734 7.29284L21.2784 7.2484ZM17.0989 7.2484L16.9016 7.21604L16.8635 7.4484H17.0989V7.2484ZM6.81455 8.24814V8.04814H6.56924L6.61865 8.28843L6.81455 8.24814ZM10.9787 8.24814L11.1761 8.21578L11.1486 8.04814H10.9787V8.24814ZM7.37999 10.9974L7.18409 11.0377L7.21694 11.1974H7.37999V10.9974ZM11.4295 10.9974V11.1974H11.665L11.6269 10.9651L11.4295 10.9974ZM15.9452 8.24814L16.1426 8.27997L16.18 8.04814H15.9452V8.24814ZM11.972 8.24814V8.04814H11.7372L11.7746 8.27997L11.972 8.24814ZM15.502 10.9974V11.1974H15.6724L15.6995 11.0293L15.502 10.9974ZM12.4152 10.9974L12.2177 11.0293L12.2449 11.1974H12.4152V10.9974ZM16.9385 8.24814V8.04814H16.7686L16.7411 8.21578L16.9385 8.24814ZM21.0492 8.24814L21.2441 8.2931L21.3006 8.04814H21.0492V8.24814ZM16.4877 10.9974L16.2903 10.9651L16.2522 11.1974H16.4877V10.9974ZM20.415 10.9974V11.1974H20.5741L20.6099 11.0424L20.415 10.9974ZM1.2 1.49989C1.2 1.3301 1.33351 1.20002 1.489 1.20002V0.800016C1.10435 0.800016 0.8 1.11753 0.8 1.49989H1.2ZM1.489 1.79976C1.33351 1.79976 1.2 1.66967 1.2 1.49989H0.8C0.8 1.88225 1.10435 2.19976 1.489 2.19976V1.79976ZM4.51472 1.79976H1.489V2.19976H4.51472V1.79976ZM7.28546 14.3935L4.71056 1.9592L4.31887 2.04031L6.89377 14.4746L7.28546 14.3935ZM7.59894 14.7964C7.54976 14.7971 7.48943 14.7727 7.42675 14.7005C7.36386 14.6281 7.31115 14.5198 7.28561 14.3942L6.89363 14.4739C6.93056 14.6555 7.00945 14.83 7.12472 14.9628C7.24022 15.0958 7.40462 15.199 7.60417 15.1964L7.59894 14.7964ZM19.8267 14.7964H7.60156V15.1964H19.8267V14.7964ZM20.1226 14.4965C20.1226 14.6533 19.9721 14.7985 19.8296 14.7964L19.8238 15.1964C20.1979 15.2018 20.5226 14.868 20.5226 14.4965H20.1226ZM19.8295 14.1966C19.9721 14.1946 20.1226 14.3398 20.1226 14.4965H20.5226C20.5226 14.1251 20.1979 13.7913 19.8238 13.7967L19.8295 14.1966ZM7.99887 14.1967H19.8267V13.7967H7.99887V14.1967ZM7.3904 12.0376L7.803 14.0371L8.19475 13.9563L7.78215 11.9568L7.3904 12.0376ZM20.8047 11.7972H7.58628V12.1972H20.8047V11.7972ZM21.083 11.5638C21.0547 11.6931 20.9264 11.7958 20.8024 11.7972L20.807 12.1972C21.1209 12.1936 21.4063 11.957 21.4738 11.6495L21.083 11.5638ZM22.7949 4.06408L21.0834 11.5622L21.4734 11.6512L23.1849 4.1531L22.7949 4.06408ZM22.5147 3.69937C22.5868 3.69989 22.6675 3.74082 22.7281 3.81876C22.7885 3.8965 22.8114 3.98887 22.7945 4.06577L23.1853 4.15142C23.232 3.93821 23.1634 3.72703 23.0438 3.57322C22.9244 3.41961 22.7364 3.30098 22.5176 3.29938L22.5147 3.69937ZM5.82892 3.69937H22.5162V3.29937H5.82892V3.69937ZM5.19754 1.43099L5.63305 3.53982L6.02478 3.45892L5.58928 1.35009L5.19754 1.43099ZM4.91378 1.20001C5.03777 1.19893 5.16923 1.30199 5.19805 1.43339L5.58877 1.34769C5.52067 1.03722 5.22928 0.797241 4.91029 0.800024L4.91378 1.20001ZM1.489 1.20002H4.91203V0.800016H1.489V1.20002ZM10.3675 4.29912H6.03523V4.69912H10.3675V4.29912ZM11.0156 7.21604L10.5649 4.46675L10.1701 4.53148L10.6209 7.28076L11.0156 7.21604ZM6.60827 7.4484H10.8183V7.0484H6.60827V7.4484ZM5.83944 4.53993L6.41248 7.28921L6.80406 7.20759L6.23102 4.45831L5.83944 4.53993ZM11.3531 4.69912H16.5641V4.29912H11.3531V4.69912ZM12.0013 7.21604L11.5505 4.46675L11.1558 4.53148L11.6066 7.28076L12.0013 7.21604ZM16.1133 7.0484H11.8039V7.4484H16.1133V7.0484ZM16.3667 4.46675L15.9159 7.21604L16.3107 7.28076L16.7614 4.53148L16.3667 4.46675ZM21.9049 4.29912H17.5497V4.69912H21.9049V4.29912ZM21.4734 7.29284L22.0999 4.54355L21.7099 4.45468L21.0834 7.20396L21.4734 7.29284ZM17.0989 7.4484H21.2784V7.0484H17.0989V7.4484ZM17.3524 4.46675L16.9016 7.21604L17.2963 7.28076L17.7471 4.53148L17.3524 4.46675ZM6.81455 8.44814H10.9787V8.04814H6.81455V8.44814ZM7.57589 10.9572L7.01045 8.20785L6.61865 8.28843L7.18409 11.0377L7.57589 10.9572ZM11.4295 10.7974H7.37999V11.1974H11.4295V10.7974ZM10.7814 8.2805L11.2322 11.0298L11.6269 10.9651L11.1761 8.21578L10.7814 8.2805ZM15.9452 8.04814H11.972V8.44814H15.9452V8.04814ZM15.6995 11.0293L16.1426 8.27997L15.7477 8.21631L15.3046 10.9656L15.6995 11.0293ZM12.4152 11.1974H15.502V10.7974H12.4152V11.1974ZM11.7746 8.27997L12.2177 11.0293L12.6126 10.9656L12.1695 8.21631L11.7746 8.27997ZM16.9385 8.44814H21.0492V8.04814H16.9385V8.44814ZM16.6851 11.0298L17.1358 8.2805L16.7411 8.21578L16.2903 10.9651L16.6851 11.0298ZM20.415 10.7974H16.4877V11.1974H20.415V10.7974ZM20.8543 8.20319L20.2201 10.9525L20.6099 11.0424L21.2441 8.2931L20.8543 8.20319ZM8.29056 18.7454C8.29056 17.6153 9.19615 16.696 10.2911 16.696V16.296C8.967 16.296 7.89056 17.4027 7.89056 18.7454H8.29056ZM10.2911 20.7948C9.19615 20.7948 8.29056 19.8755 8.29056 18.7454H7.89056C7.89056 20.0881 8.967 21.1948 10.2911 21.1948V20.7948ZM12.2916 18.7454C12.2916 19.8755 11.386 20.7948 10.2911 20.7948V21.1948C11.6152 21.1948 12.6916 20.0881 12.6916 18.7454H12.2916ZM10.2911 16.696C11.386 16.696 12.2916 17.6153 12.2916 18.7454H12.6916C12.6916 17.4027 11.6152 16.296 10.2911 16.296V16.696ZM17.1371 16.296C15.8131 16.296 14.7366 17.4027 14.7366 18.7454H15.1366C15.1366 17.6153 16.0422 16.696 17.1371 16.696V16.296ZM19.5377 18.7454C19.5377 17.4027 18.4612 16.296 17.1371 16.296V16.696C18.2321 16.696 19.1377 17.6153 19.1377 18.7454H19.5377ZM17.1371 21.1948C18.4612 21.1948 19.5377 20.0881 19.5377 18.7454H19.1377C19.1377 19.8755 18.2321 20.7948 17.1371 20.7948V21.1948ZM14.7366 18.7454C14.7366 20.0881 15.8131 21.1948 17.1371 21.1948V20.7948C16.0422 20.7948 15.1366 19.8755 15.1366 18.7454H14.7366ZM11.7136 18.7454C11.7136 17.943 11.0866 17.2957 10.2911 17.2957V17.6957C10.8575 17.6957 11.3136 18.1556 11.3136 18.7454H11.7136ZM10.2911 20.1951C11.0866 20.1951 11.7136 19.5478 11.7136 18.7454H11.3136C11.3136 19.3352 10.8575 19.7951 10.2911 19.7951V20.1951ZM8.86857 18.7454C8.86857 19.5478 9.49557 20.1951 10.2911 20.1951V19.7951C9.72472 19.7951 9.26857 19.3352 9.26857 18.7454H8.86857ZM10.2911 17.2957C9.49557 17.2957 8.86857 17.943 8.86857 18.7454H9.26857C9.26857 18.1556 9.72472 17.6957 10.2911 17.6957V17.2957ZM17.1371 17.6957C17.7035 17.6957 18.1597 18.1556 18.1597 18.7454H18.5597C18.5597 17.943 17.9327 17.2957 17.1371 17.2957V17.6957ZM16.1146 18.7454C16.1146 18.1556 16.5708 17.6957 17.1371 17.6957V17.2957C16.3416 17.2957 15.7146 17.943 15.7146 18.7454H16.1146ZM17.1371 19.7951C16.5708 19.7951 16.1146 19.3352 16.1146 18.7454H15.7146C15.7146 19.5478 16.3416 20.1951 17.1371 20.1951V19.7951ZM18.1597 18.7454C18.1597 19.3352 17.7035 19.7951 17.1371 19.7951V20.1951C17.9327 20.1951 18.5597 19.5478 18.5597 18.7454H18.1597Z" fill="#FE5900"/>
</svg>
