<svg width="23" height="21" viewBox="0 0 23 21" fill="none" xmlns="http://www.w3.org/2000/svg">
<path fill-rule="evenodd" clip-rule="evenodd" d="M0.986044 0.360612C0.715967 0.360612 0.49704 0.584412 0.49704 0.860483C0.49704 1.13655 0.715967 1.36035 0.986044 1.36035H4.01176L6.58666 13.7947C6.64913 14.1018 6.84986 14.3603 7.0986 14.357H19.3237C19.582 14.3608 19.8197 14.1213 19.8197 13.8571C19.8197 13.593 19.582 13.3535 19.3237 13.3573H7.49591L7.08332 11.3578H20.3017C20.5207 11.3553 20.7275 11.1857 20.7754 10.9673L22.4869 3.46919C22.5505 3.17908 22.3041 2.86209 22.0132 2.85997H5.32596L4.89045 0.751136C4.84199 0.530198 4.63057 0.35868 4.40907 0.360612H0.986044ZM5.53227 3.85971H9.86453L10.3153 6.60899H6.10531L5.53227 3.85971ZM16.0611 3.85971H10.8502L11.301 6.60899H15.6103L16.0611 3.85971ZM17.0468 3.85971H21.402L20.7754 6.60899H16.596L17.0468 3.85971ZM10.4758 7.60874H6.31159L6.87703 10.358H10.9266L10.4758 7.60874ZM11.4691 7.60874H15.4422L14.9991 10.358H11.9122L11.4691 7.60874ZM20.5462 7.60874H16.4355L15.9847 10.358H19.912L20.5462 7.60874ZM9.78812 15.8566C8.57862 15.8566 7.5876 16.8696 7.5876 18.106C7.5876 19.3424 8.57862 20.3554 9.78812 20.3554C10.9976 20.3554 11.9886 19.3424 11.9886 18.106C11.9886 16.8696 10.9976 15.8566 9.78812 15.8566ZM14.4337 18.106C14.4337 16.8696 15.4247 15.8566 16.6342 15.8566C17.8437 15.8566 18.8347 16.8696 18.8347 18.106C18.8347 19.3424 17.8437 20.3554 16.6342 20.3554C15.4247 20.3554 14.4337 19.3424 14.4337 18.106ZM9.78812 16.8563C10.4691 16.8563 11.0106 17.4099 11.0106 18.106C11.0106 18.8021 10.4691 19.3557 9.78812 19.3557C9.10718 19.3557 8.56561 18.8021 8.56561 18.106C8.56561 17.4099 9.10718 16.8563 9.78812 16.8563ZM17.8567 18.106C17.8567 17.4099 17.3151 16.8563 16.6342 16.8563C15.9532 16.8563 15.4117 17.4099 15.4117 18.106C15.4117 18.8021 15.9532 19.3557 16.6342 19.3557C17.3151 19.3557 17.8567 18.8021 17.8567 18.106Z" fill="white"/>
<path d="M4.01176 1.36035L4.2076 1.3198L4.17458 1.16035H4.01176V1.36035ZM6.58666 13.7947L6.78265 13.7548L6.7825 13.7541L6.58666 13.7947ZM7.0986 14.357V14.157L7.09598 14.157L7.0986 14.357ZM19.3237 14.357L19.3266 14.157H19.3237V14.357ZM19.3237 13.3573V13.5573L19.3266 13.5572L19.3237 13.3573ZM7.49591 13.3573L7.30004 13.3977L7.33297 13.5573H7.49591V13.3573ZM7.08332 11.3578V11.1578H6.83783L6.88744 11.3982L7.08332 11.3578ZM20.3017 11.3578V11.5578L20.304 11.5578L20.3017 11.3578ZM20.7754 10.9673L20.5804 10.9227L20.5801 10.9244L20.7754 10.9673ZM22.4869 3.46919L22.6819 3.5137L22.6823 3.51201L22.4869 3.46919ZM22.0132 2.85997L22.0147 2.65997H22.0132V2.85997ZM5.32596 2.85997L5.13009 2.90042L5.16304 3.05997H5.32596V2.85997ZM4.89045 0.751136L5.08633 0.710683L5.08581 0.708287L4.89045 0.751136ZM4.40907 0.360612V0.560619L4.41082 0.560604L4.40907 0.360612ZM9.86453 3.85971L10.0619 3.82735L10.0344 3.65971H9.86453V3.85971ZM5.53227 3.85971V3.65971H5.28628L5.33648 3.90052L5.53227 3.85971ZM10.3153 6.60899V6.80899H10.5508L10.5127 6.57663L10.3153 6.60899ZM6.10531 6.60899L5.90951 6.6498L5.9427 6.80899H6.10531V6.60899ZM10.8502 3.85971V3.65971H10.6147L10.6528 3.89207L10.8502 3.85971ZM16.0611 3.85971L16.2585 3.89207L16.2966 3.65971H16.0611V3.85971ZM11.301 6.60899L11.1036 6.64136L11.1311 6.80899H11.301V6.60899ZM15.6103 6.60899V6.80899H15.7802L15.8077 6.64136L15.6103 6.60899ZM21.402 3.85971L21.597 3.90415L21.6527 3.65971H21.402V3.85971ZM17.0468 3.85971V3.65971H16.8769L16.8494 3.82735L17.0468 3.85971ZM20.7754 6.60899V6.80899H20.935L20.9704 6.65343L20.7754 6.60899ZM16.596 6.60899L16.3986 6.57663L16.3605 6.80899H16.596V6.60899ZM6.31159 7.60874V7.40874H6.06628L6.11569 7.64903L6.31159 7.60874ZM10.4758 7.60874L10.6731 7.57638L10.6457 7.40874H10.4758V7.60874ZM6.87703 10.358L6.68113 10.3983L6.71398 10.558H6.87703V10.358ZM10.9266 10.358V10.558H11.162L11.1239 10.3257L10.9266 10.358ZM15.4422 7.60874L15.6397 7.64056L15.6771 7.40874H15.4422V7.60874ZM11.4691 7.60874V7.40874H11.2343L11.2716 7.64056L11.4691 7.60874ZM14.9991 10.358V10.558H15.1694L15.1965 10.3899L14.9991 10.358ZM11.9122 10.358L11.7148 10.3899L11.7419 10.558H11.9122V10.358ZM16.4355 7.60874V7.40874H16.2656L16.2382 7.57638L16.4355 7.60874ZM20.5462 7.60874L20.7411 7.65369L20.7976 7.40874H20.5462V7.60874ZM15.9847 10.358L15.7874 10.3257L15.7493 10.558H15.9847V10.358ZM19.912 10.358V10.558H20.0711L20.1069 10.403L19.912 10.358ZM0.69704 0.860483C0.69704 0.6907 0.830547 0.560612 0.986044 0.560612V0.160612C0.601387 0.160612 0.29704 0.478123 0.29704 0.860483H0.69704ZM0.986044 1.16035C0.830547 1.16035 0.69704 1.03027 0.69704 0.860483H0.29704C0.29704 1.24284 0.601387 1.56035 0.986044 1.56035V1.16035ZM4.01176 1.16035H0.986044V1.56035H4.01176V1.16035ZM6.7825 13.7541L4.2076 1.3198L3.81591 1.40091L6.39081 13.8352L6.7825 13.7541ZM7.09598 14.157C7.0468 14.1577 6.98647 14.1333 6.92379 14.0611C6.8609 13.9887 6.80819 13.8804 6.78265 13.7548L6.39067 13.8345C6.4276 14.0161 6.50649 14.1906 6.62176 14.3234C6.73726 14.4564 6.90166 14.5596 7.10121 14.557L7.09598 14.157ZM19.3237 14.157H7.0986V14.557H19.3237V14.157ZM19.6197 13.8571C19.6197 14.0139 19.4692 14.1591 19.3266 14.157L19.3208 14.557C19.6949 14.5624 20.0197 14.2286 20.0197 13.8571H19.6197ZM19.3266 13.5572C19.4692 13.5552 19.6197 13.7004 19.6197 13.8571H20.0197C20.0197 13.4857 19.6949 13.1519 19.3208 13.1573L19.3266 13.5572ZM7.49591 13.5573H19.3237V13.1573H7.49591V13.5573ZM6.88744 11.3982L7.30004 13.3977L7.69179 13.3168L7.27919 11.3174L6.88744 11.3982ZM20.3017 11.1578H7.08332V11.5578H20.3017V11.1578ZM20.5801 10.9244C20.5517 11.0537 20.4234 11.1564 20.2994 11.1578L20.304 11.5578C20.6179 11.5542 20.9034 11.3176 20.9708 11.0101L20.5801 10.9244ZM22.292 3.42468L20.5805 10.9228L20.9704 11.0118L22.6819 3.51369L22.292 3.42468ZM22.0118 3.05996C22.0838 3.06049 22.1645 3.10142 22.2251 3.17936C22.2856 3.25709 22.3084 3.34947 22.2916 3.42636L22.6823 3.51201C22.729 3.2988 22.6605 3.08763 22.5409 2.93382C22.4214 2.7802 22.2335 2.66157 22.0147 2.65998L22.0118 3.05996ZM5.32596 3.05997H22.0132V2.65997H5.32596V3.05997ZM4.69458 0.791586L5.13009 2.90042L5.52182 2.81952L5.08632 0.710687L4.69458 0.791586ZM4.41082 0.560604C4.53481 0.559523 4.66627 0.662585 4.69509 0.793985L5.08581 0.708287C5.01771 0.397811 4.72632 0.157837 4.40733 0.160619L4.41082 0.560604ZM0.986044 0.560612H4.40907V0.160612H0.986044V0.560612ZM9.86453 3.65971H5.53227V4.05971H9.86453V3.65971ZM10.5127 6.57663L10.0619 3.82735L9.66716 3.89207L10.118 6.64136L10.5127 6.57663ZM6.10531 6.80899H10.3153V6.40899H6.10531V6.80899ZM5.33648 3.90052L5.90951 6.6498L6.3011 6.56818L5.72806 3.8189L5.33648 3.90052ZM10.8502 4.05971H16.0611V3.65971H10.8502V4.05971ZM11.4983 6.57663L11.0476 3.82735L10.6528 3.89207L11.1036 6.64136L11.4983 6.57663ZM15.6103 6.40899H11.301V6.80899H15.6103V6.40899ZM15.8638 3.82735L15.413 6.57663L15.8077 6.64136L16.2585 3.89207L15.8638 3.82735ZM21.402 3.65971H17.0468V4.05971H21.402V3.65971ZM20.9704 6.65343L21.597 3.90415L21.207 3.81527L20.5804 6.56456L20.9704 6.65343ZM16.596 6.80899H20.7754V6.40899H16.596V6.80899ZM16.8494 3.82735L16.3986 6.57663L16.7934 6.64136L17.2441 3.89207L16.8494 3.82735ZM6.31159 7.80874H10.4758V7.40874H6.31159V7.80874ZM7.07293 10.3177L6.50749 7.56845L6.11569 7.64903L6.68113 10.3983L7.07293 10.3177ZM10.9266 10.158H6.87703V10.558H10.9266V10.158ZM10.2784 7.6411L10.7292 10.3904L11.1239 10.3257L10.6731 7.57638L10.2784 7.6411ZM15.4422 7.40874H11.4691V7.80874H15.4422V7.40874ZM15.1965 10.3899L15.6397 7.64056L15.2448 7.57691L14.8016 10.3262L15.1965 10.3899ZM11.9122 10.558H14.9991V10.158H11.9122V10.558ZM11.2716 7.64056L11.7148 10.3899L12.1097 10.3262L11.6665 7.57691L11.2716 7.64056ZM16.4355 7.80874H20.5462V7.40874H16.4355V7.80874ZM16.1821 10.3904L16.6329 7.6411L16.2382 7.57638L15.7874 10.3257L16.1821 10.3904ZM19.912 10.158H15.9847V10.558H19.912V10.158ZM20.3513 7.56378L19.7171 10.3131L20.1069 10.403L20.7411 7.65369L20.3513 7.56378ZM7.7876 18.106C7.7876 16.9759 8.69319 16.0566 9.78812 16.0566V15.6566C8.46404 15.6566 7.3876 16.7633 7.3876 18.106H7.7876ZM9.78812 20.1554C8.69319 20.1554 7.7876 19.2361 7.7876 18.106H7.3876C7.3876 19.4487 8.46404 20.5554 9.78812 20.5554V20.1554ZM11.7886 18.106C11.7886 19.2361 10.8831 20.1554 9.78812 20.1554V20.5554C11.1122 20.5554 12.1886 19.4487 12.1886 18.106H11.7886ZM9.78812 16.0566C10.8831 16.0566 11.7886 16.9759 11.7886 18.106H12.1886C12.1886 16.7633 11.1122 15.6566 9.78812 15.6566V16.0566ZM16.6342 15.6566C15.3101 15.6566 14.2337 16.7633 14.2337 18.106H14.6337C14.6337 16.9759 15.5393 16.0566 16.6342 16.0566V15.6566ZM19.0347 18.106C19.0347 16.7633 17.9583 15.6566 16.6342 15.6566V16.0566C17.7291 16.0566 18.6347 16.9759 18.6347 18.106H19.0347ZM16.6342 20.5554C17.9583 20.5554 19.0347 19.4487 19.0347 18.106H18.6347C18.6347 19.2361 17.7291 20.1554 16.6342 20.1554V20.5554ZM14.2337 18.106C14.2337 19.4487 15.3101 20.5554 16.6342 20.5554V20.1554C15.5393 20.1554 14.6337 19.2361 14.6337 18.106H14.2337ZM11.2106 18.106C11.2106 17.3036 10.5837 16.6563 9.78812 16.6563V17.0563C10.3545 17.0563 10.8106 17.5162 10.8106 18.106H11.2106ZM9.78812 19.5557C10.5837 19.5557 11.2106 18.9084 11.2106 18.106H10.8106C10.8106 18.6958 10.3545 19.1557 9.78812 19.1557V19.5557ZM8.36561 18.106C8.36561 18.9084 8.99261 19.5557 9.78812 19.5557V19.1557C9.22176 19.1557 8.76561 18.6958 8.76561 18.106H8.36561ZM9.78812 16.6563C8.99261 16.6563 8.36561 17.3036 8.36561 18.106H8.76561C8.76561 17.5162 9.22176 17.0563 9.78812 17.0563V16.6563ZM16.6342 17.0563C17.2006 17.0563 17.6567 17.5162 17.6567 18.106H18.0567C18.0567 17.3036 17.4297 16.6563 16.6342 16.6563V17.0563ZM15.6117 18.106C15.6117 17.5162 16.0678 17.0563 16.6342 17.0563V16.6563C15.8387 16.6563 15.2117 17.3036 15.2117 18.106H15.6117ZM16.6342 19.1557C16.0678 19.1557 15.6117 18.6958 15.6117 18.106H15.2117C15.2117 18.9084 15.8387 19.5557 16.6342 19.5557V19.1557ZM17.6567 18.106C17.6567 18.6958 17.2006 19.1557 16.6342 19.1557V19.5557C17.4297 19.5557 18.0567 18.9084 18.0567 18.106H17.6567Z" fill="white"/>
</svg>
