<svg width="12" height="12" viewBox="0 0 12 12" fill="none" xmlns="http://www.w3.org/2000/svg">
<path opacity="0.3" fill-rule="evenodd" clip-rule="evenodd" d="M7.70999 3.8189C7.24424 3.48852 6.67552 3.29344 6.06141 3.29344C5.4474 3.29344 4.87868 3.48852 4.41304 3.8189L0 3.8189L0 2.98677C0 1.33985 1.34534 0 2.99901 0L9.00109 0C10.6547 0 12 1.33985 12 2.98677L12 3.8189L7.70999 3.8189ZM8.51958 1.81515C8.51958 1.63253 8.66936 1.48335 8.85283 1.48335L9.88232 1.48335C10.0657 1.48335 10.2157 1.63253 10.2157 1.81515V2.84054C10.2157 3.02316 10.0657 3.17243 9.88232 3.17243H8.85283C8.66936 3.17243 8.51958 3.02316 8.51958 2.84054V1.81515ZM6.06141 8.96742C7.63215 8.96742 8.91012 7.69486 8.91012 6.13043C8.91012 5.69962 8.81274 5.29131 8.63955 4.92516L12 4.92516V9.01323C12 10.6601 10.6547 12 9.00109 12L2.99901 12C1.34534 12 0 10.6601 0 9.01323L0 4.92516L3.48338 4.92516C3.31018 5.29131 3.2128 5.69962 3.2128 6.13043C3.2128 7.69486 4.49068 8.96742 6.06141 8.96742ZM6.06141 4.95272C6.71358 4.95272 7.24394 5.48112 7.24394 6.13043C7.24394 6.77983 6.71358 7.30813 6.06141 7.30813C5.40945 7.30813 4.87888 6.77983 4.87888 6.13043C4.87888 5.48112 5.40945 4.95272 6.06141 4.95272Z" fill="#2E2E2E"/>
</svg>
