<svg width="20" height="20" viewBox="0 0 20 20" fill="none" xmlns="http://www.w3.org/2000/svg">
<path fill-rule="evenodd" clip-rule="evenodd" d="M10 20C15.5227 20 20 15.5227 20 10C20 4.47734 15.5227 0 10 0C4.47734 0 0 4.47734 0 10C0 15.5227 4.47734 20 10 20ZM10 4.80469C11.3134 4.80469 12.3781 5.86941 12.3781 7.18281C12.3781 8.49621 11.3134 9.56094 10 9.56094C8.6866 9.56094 7.62187 8.49621 7.62187 7.18281C7.62445 5.87048 8.68767 4.80727 10 4.80469ZM11.7788 10.5105C10.0419 9.7911 8.04272 10.1887 6.71328 11.518C5.83865 12.3877 5.34831 13.5712 5.35156 14.8047H14.6484C14.6483 12.9247 13.5157 11.2299 11.7788 10.5105Z" fill="white"/>
</svg>
