<svg width="15" height="9" viewBox="0 0 15 9" fill="none" xmlns="http://www.w3.org/2000/svg">
<path opacity="0.3" d="M0.00255507 0.658483C-0.100219 0.0822635 2.93161 0.439024 2.93161 0.439024C2.93161 0.439024 4.69161 4.5 5.38533 4.5C6.07906 4.5 5.74504 1.0564 5.74504 1.0564C5.74504 1.0564 4.88431 0.85061 4.88431 0.535061C4.88431 0.219512 5.74504 0 5.74504 0C5.74504 0 7.97256 2.75816e-08 8.27585 0C8.57914 -2.79545e-08 8.69984 0.452744 8.69984 0.754573C8.69984 1.0564 8.69984 4.44512 8.69984 4.44512L9.39356 4.44512C9.39356 4.44512 10.0111 3.53317 10.4983 2.60671C10.9856 1.68024 11.5775 0.439024 11.5775 0.439024L14.5194 0.439024C14.5194 0.439024 15.0589 0.452637 14.9947 0.864276C14.9073 1.42428 12.9501 4.08362 12.541 4.99385C12.2326 5.67982 13.8362 6.6083 14.5194 7.60056C14.9627 8.24455 14.9947 9 14.9947 9H11.5004L9.75322 7.13409C9.75322 7.13409 9.39357 6.99695 9.11089 7.18897C8.82821 7.38099 8.81541 7.76519 8.81541 7.76519V9H6.07906C6.07906 9 3.98504 8.34146 2.21219 5.46037C0.439344 2.57927 0.105329 1.2347 0.00255507 0.658483Z" fill="#2E2E2E"/>
</svg>
